# xmcd
#
# Track frame offsets: 
#        150
#        24359
#        47277
#        66973
#        87307
#        106669
#        124753
#        144582
#        167573
#        192396
#        208136
#        229851
#        252789
#
# Disc length: 3668 seconds
#
# Revision: 1
# Processed by: cddbd v1.5.2PL0 Copyright (c) Steve Scherf et al.
# Submitted via: ExactAudioCopyFreeDBPlugin 1.0
#
DISCID=ab0e520d
DTITLE=小月 - DTSES黄金十年惊叹1
DYEAR=2008
DGENRE=DTS ES
TTITLE0=常回家看看
TTITLE1=达古拉
TTITLE2=好运来
TTITLE3=花好月圆
TTITLE4=吉祥如意
TTITLE5=家和万事兴
TTITLE6=家乡美
TTITLE7=九九艳阳天
TTITLE8=牵挂
TTITLE9=人间第一情
TTITLE10=问候你
TTITLE11=向着太阳
TTITLE12=自由飞翔
EXTD=
EXTT0=
EXTT1=
EXTT2=
EXTT3=
EXTT4=
EXTT5=
EXTT6=
EXTT7=
EXTT8=
EXTT9=
EXTT10=
EXTT11=
EXTT12=
PLAYORDER=
